HIERARCHY
ROOT Hips
{
	OFFSET 0.000000 83.214638 0.000000
	CHANNELS 6 Xposition Yposition Zposition Xrotation Yrotation Zrotation
	JOINT Pelvis
	{
		OFFSET 0.000000 0.000000 0.000000
		CHANNELS 3 Xrotation Yrotation Zrotation
		JOINT LeftUpLeg
		{
			OFFSET 8.479700 -4.795502 -0.379100
			CHANNELS 3 Xrotation Yrotation Zrotation
			JOINT LeftLeg
			{
				OFFSET 0.024144 -32.555107 0.112900
				CHANNELS 3 Xrotation Yrotation Zrotation
				JOINT LeftFoot
				{
					OFFSET -0.024144 -32.638630 -3.012600
					CHANNELS 3 Xrotation Yrotation Zrotation
					JOINT LeftToeBase
					{
						OFFSET 0.970200 -13.225400 11.864200
						CHANNELS 3 Xrotation Yrotation Zrotation
						End Site
						{
							OFFSET 0.000000 12.319262 0.000000
						}
					}
					JOINT LFootTongue
					{
						OFFSET 1.142400 -1.059800 6.665200
						CHANNELS 3 Xrotation Yrotation Zrotation
						End Site
						{
							OFFSET 0.000000 12.319262 0.000000
						}
					}
				}
				JOINT LeftPantLeg
				{
					OFFSET 0.918482 -16.533964 -2.284700
					CHANNELS 3 Xrotation Yrotation Zrotation
					End Site
					{
						OFFSET 0.350399 24.744368 0.000000
					}
				}
			}
		}
		JOINT RightUpLeg
		{
			OFFSET -8.479700 -4.795502 -0.379100
			CHANNELS 3 Xrotation Yrotation Zrotation
			JOINT RightLeg
			{
				OFFSET -0.023144 -32.555092 0.112900
				CHANNELS 3 Xrotation Yrotation Zrotation
				JOINT RightFoot
				{
					OFFSET 0.023144 -32.638641 -3.012700
					CHANNELS 3 Xrotation Yrotation Zrotation
					JOINT RightToeBase
					{
						OFFSET -0.970200 -13.225400 11.864200
						CHANNELS 3 Xrotation Yrotation Zrotation
						End Site
						{
							OFFSET 0.000000 12.319244 0.000000
						}
					}
					JOINT RFootTongue
					{
						OFFSET -1.142200 -1.059800 6.665200
						CHANNELS 3 Xrotation Yrotation Zrotation
						End Site
						{
							OFFSET 0.000000 12.319243 0.000000
						}
					}
				}
				JOINT RightPantLeg
				{
					OFFSET -0.919482 -16.533978 -2.284800
					CHANNELS 3 Xrotation Yrotation Zrotation
					End Site
					{
						OFFSET -0.350400 24.744419 0.000000
					}
				}
			}
		}
	}
	JOINT Spine
	{
		OFFSET 0.000000 7.722000 1.166200
		CHANNELS 3 Xrotation Yrotation Zrotation
		JOINT Spine1
		{
			OFFSET 0.000000 12.024101 0.248800
			CHANNELS 3 Xrotation Yrotation Zrotation
			JOINT Spine2
			{
				OFFSET 0.000000 11.502998 -0.491200
				CHANNELS 3 Xrotation Yrotation Zrotation
				JOINT Neck
				{
					OFFSET 0.000000 18.430702 -3.123100
					CHANNELS 3 Xrotation Yrotation Zrotation
					JOINT Head
					{
						OFFSET 0.000000 9.051102 1.034000
						CHANNELS 3 Xrotation Yrotation Zrotation
						JOINT HairB
						{
							OFFSET 0.208400 24.786102 24.822300
							CHANNELS 3 Xrotation Yrotation Zrotation
							End Site
							{
								OFFSET 0.000000 32.263779 0.000000
							}
						}
						JOINT HairA
						{
							OFFSET -7.081100 24.428299 23.196600
							CHANNELS 3 Xrotation Yrotation Zrotation
							End Site
							{
								OFFSET 0.000000 32.263779 0.000000
							}
						}
						JOINT Hat
						{
							OFFSET 16.728800 15.048294 -15.439601
							CHANNELS 3 Xrotation Yrotation Zrotation
							End Site
							{
								OFFSET 0.000000 32.263779 0.000000
							}
						}
					}
				}
				JOINT LeftShoulder
				{
					OFFSET 6.197800 13.665199 -4.064700
					CHANNELS 3 Xrotation Yrotation Zrotation
					JOINT LeftArm
					{
						OFFSET 7.778100 -0.187103 -1.709300
						CHANNELS 3 Xrotation Yrotation Zrotation
						JOINT LeftForeArm
						{
							OFFSET 22.049376 0.000000 0.000000
							CHANNELS 3 Xrotation Yrotation Zrotation
							JOINT LeftHand
							{
								OFFSET 23.009392 0.000000 0.000000
								CHANNELS 3 Xrotation Yrotation Zrotation
								JOINT LeftHandThumb1
								{
									OFFSET 3.507191 -2.063065 3.133727
									CHANNELS 3 Xrotation Yrotation Zrotation
									JOINT LeftHandThumb2
									{
										OFFSET 3.101337 -1.790558 1.790558
										CHANNELS 3 Xrotation Yrotation Zrotation
										JOINT LeftHandThumb3
										{
											OFFSET 3.058640 -1.765907 1.765906
											CHANNELS 3 Xrotation Yrotation Zrotation
											End Site
											{
												OFFSET -0.415260 3.926476 -0.049563
											}
										}
									}
								}
								JOINT LeftHandIndex1
								{
									OFFSET 11.334419 -0.901459 3.706815
									CHANNELS 3 Xrotation Yrotation Zrotation
									JOINT LeftHandIndex2
									{
										OFFSET 3.283112 0.000000 0.000000
										CHANNELS 3 Xrotation Yrotation Zrotation
										JOINT LeftHandIndex3
										{
											OFFSET 3.323853 0.000000 0.000000
											CHANNELS 3 Xrotation Yrotation Zrotation
											End Site
											{
												OFFSET -1.135597 3.097809 0.402452
											}
										}
									}
								}
								JOINT LeftHandMiddle1
								{
									OFFSET 11.335861 0.000000 0.000000
									CHANNELS 3 Xrotation Yrotation Zrotation
									JOINT LeftHandMiddle2
									{
										OFFSET 3.410492 0.000000 0.000000
										CHANNELS 3 Xrotation Yrotation Zrotation
										JOINT LeftHandMiddle3
										{
											OFFSET 3.312172 0.000000 0.000000
											CHANNELS 3 Xrotation Yrotation Zrotation
											End Site
											{
												OFFSET -1.150200 3.080154 0.400270
											}
										}
									}
								}
								JOINT LeftHandRing1
								{
									OFFSET 11.514786 -0.013176 -3.003090
									CHANNELS 3 Xrotation Yrotation Zrotation
									JOINT LeftHandRing2
									{
										OFFSET 3.053307 0.000000 0.000000
										CHANNELS 3 Xrotation Yrotation Zrotation
										JOINT LeftHandRing3
										{
											OFFSET 3.295807 0.000000 0.000000
											CHANNELS 3 Xrotation Yrotation Zrotation
											End Site
											{
												OFFSET -1.281006 3.013344 0.375733
											}
										}
									}
								}
								JOINT LeftHandPinky1
								{
									OFFSET 10.518692 -0.960396 -5.730441
									CHANNELS 3 Xrotation Yrotation Zrotation
									JOINT LeftHandPinky2
									{
										OFFSET 2.861649 0.000000 0.000000
										CHANNELS 3 Xrotation Yrotation Zrotation
										JOINT LeftHandPinky3
										{
											OFFSET 2.863380 0.000000 0.000000
											CHANNELS 3 Xrotation Yrotation Zrotation
											End Site
											{
												OFFSET -0.843597 2.711159 0.369971
											}
										}
									}
								}
							}
							JOINT LSleeve
							{
								OFFSET 6.676277 -0.344902 -1.011730
								CHANNELS 3 Xrotation Yrotation Zrotation
								End Site
								{
									OFFSET 0.000000 14.885353 0.000000
								}
							}
						}
					}
				}
				JOINT RightShoulder
				{
					OFFSET -6.197800 13.665199 -4.064700
					CHANNELS 3 Xrotation Yrotation Zrotation
					JOINT RightArm
					{
						OFFSET -7.778100 -0.187103 -1.709300
						CHANNELS 3 Xrotation Yrotation Zrotation
						JOINT RightForeArm
						{
							OFFSET -22.049376 0.000000 0.000000
							CHANNELS 3 Xrotation Yrotation Zrotation
							JOINT RightHand
							{
								OFFSET -23.009392 0.000000 0.000000
								CHANNELS 3 Xrotation Yrotation Zrotation
								JOINT RightHandThumb1
								{
									OFFSET -3.507191 -2.063065 3.133727
									CHANNELS 3 Xrotation Yrotation Zrotation
									JOINT RightHandThumb2
									{
										OFFSET -3.101337 -1.790558 1.790558
										CHANNELS 3 Xrotation Yrotation Zrotation
										JOINT RightHandThumb3
										{
											OFFSET -3.058640 -1.765907 1.765906
											CHANNELS 3 Xrotation Yrotation Zrotation
											End Site
											{
												OFFSET 0.415260 3.926476 -0.049563
											}
										}
									}
								}
								JOINT RightHandIndex1
								{
									OFFSET -11.334419 -0.901459 3.706815
									CHANNELS 3 Xrotation Yrotation Zrotation
									JOINT RightHandIndex2
									{
										OFFSET -3.283112 0.000000 0.000000
										CHANNELS 3 Xrotation Yrotation Zrotation
										JOINT RightHandIndex3
										{
											OFFSET -3.323853 0.000000 0.000000
											CHANNELS 3 Xrotation Yrotation Zrotation
											End Site
											{
												OFFSET 1.135597 3.097809 0.402452
											}
										}
									}
								}
								JOINT RightHandMiddle1
								{
									OFFSET -11.335861 0.000000 0.000000
									CHANNELS 3 Xrotation Yrotation Zrotation
									JOINT RightHandMiddle2
									{
										OFFSET -3.410492 0.000000 0.000000
										CHANNELS 3 Xrotation Yrotation Zrotation
										JOINT RightHandMiddle3
										{
											OFFSET -3.312172 0.000000 0.000000
											CHANNELS 3 Xrotation Yrotation Zrotation
											End Site
											{
												OFFSET 1.150200 3.080154 0.400270
											}
										}
									}
								}
								JOINT RightHandRing1
								{
									OFFSET -11.514786 -0.013176 -3.003090
									CHANNELS 3 Xrotation Yrotation Zrotation
									JOINT RightHandRing2
									{
										OFFSET -3.053307 0.000000 0.000000
										CHANNELS 3 Xrotation Yrotation Zrotation
										JOINT RightHandRing3
										{
											OFFSET -3.295807 0.000000 0.000000
											CHANNELS 3 Xrotation Yrotation Zrotation
											End Site
											{
												OFFSET 1.281006 3.013344 0.375733
											}
										}
									}
								}
								JOINT RightHandPinky1
								{
									OFFSET -10.518692 -0.960396 -5.730441
									CHANNELS 3 Xrotation Yrotation Zrotation
									JOINT RightHandPinky2
									{
										OFFSET -2.861649 0.000000 0.000000
										CHANNELS 3 Xrotation Yrotation Zrotation
										JOINT RightHandPinky3
										{
											OFFSET -2.863380 0.000000 0.000000
											CHANNELS 3 Xrotation Yrotation Zrotation
											End Site
											{
												OFFSET 0.843597 2.711159 0.369971
											}
										}
									}
								}
							}
							JOINT RSleeve
							{
								OFFSET -6.676277 -0.344902 -1.011730
								CHANNELS 3 Xrotation Yrotation Zrotation
								End Site
								{
									OFFSET 0.000000 14.885353 0.000000
								}
							}
						}
					}
				}
				JOINT Backpack
				{
					OFFSET 0.000000 -2.471497 36.677502
					CHANNELS 3 Xrotation Yrotation Zrotation
					End Site
					{
						OFFSET 0.000000 20.427315 0.000000
					}
				}
				JOINT Hood
				{
					OFFSET 0.000000 18.754097 -10.431000
					CHANNELS 3 Xrotation Yrotation Zrotation
					JOINT Hood1
					{
						OFFSET 0.000000 -5.011002 -7.685901
						CHANNELS 3 Xrotation Yrotation Zrotation
						End Site
						{
							OFFSET 0.000000 9.175140 0.000000
						}
					}
				}
				JOINT LHoodieString
				{
					OFFSET 5.250500 16.397697 3.089900
					CHANNELS 3 Xrotation Yrotation Zrotation
					JOINT LHoodieString1
					{
						OFFSET 0.257700 -6.364304 3.694600
						CHANNELS 3 Xrotation Yrotation Zrotation
						JOINT LHoodieString2
						{
							OFFSET 0.000000 -9.643799 2.679100
							CHANNELS 3 Xrotation Yrotation Zrotation
							End Site
							{
								OFFSET 0.000000 10.009018 0.000000
							}
						}
					}
				}
				JOINT RHoodieString
				{
					OFFSET -5.250500 16.397697 3.089900
					CHANNELS 3 Xrotation Yrotation Zrotation
					JOINT RHoodieString1
					{
						OFFSET -0.257700 -6.364304 3.694600
						CHANNELS 3 Xrotation Yrotation Zrotation
						JOINT RHoodieString2
						{
							OFFSET 0.000000 -9.643799 2.679100
							CHANNELS 3 Xrotation Yrotation Zrotation
							End Site
							{
								OFFSET 0.000000 10.009018 0.000000
							}
						}
					}
				}
			}
			JOINT LBackpack_Strap
			{
				OFFSET 15.223200 -7.719803 -6.610900
				CHANNELS 3 Xrotation Yrotation Zrotation
				End Site
				{
					OFFSET 0.000000 16.040596 0.000000
				}
			}
			JOINT RBackpack_Strap
			{
				OFFSET -15.223000 -7.719803 -6.610900
				CHANNELS 3 Xrotation Yrotation Zrotation
				End Site
				{
					OFFSET 0.000000 16.040596 0.000000
				}
			}
		}
	}
	JOINT BoyFacialAnim_Joint
	{
		OFFSET 1.000000 -82.208099 -1.550900
		CHANNELS 3 Xrotation Yrotation Zrotation
		End Site
		{
			OFFSET 0.000000 30.012791 0.000000
		}
	}
}
MOTION
Frames: 4
Frame Time: 0.016667
7.301266 63.285255 41.245777 -14.570189 -41.928370 -8.600991 -0.000000 -0.000001 -0.000000 -45.824309 0.431932 28.452502 58.944041 -6.298932 6.894527 -4.841136 -10.018447 -23.319005 -0.000000 -0.000000 0.000000 -0.000000 -0.000000 0.000000 0.000000 0.000000 0.000001 -29.802902 -2.619357 -38.109870 80.856462 8.271796 -10.070756 -9.669818 -8.598821 16.545472 0.000002 -0.000000 0.000001 0.000002 -0.000000 0.000001 -0.000002 0.000001 -0.000004 22.976536 5.685516 -9.782835 0.646535 0.929545 0.134783 0.636325 0.960700 0.115374 4.340629 13.104374 0.961782 1.464761 20.711690 -6.151119 -0.000001 0.000000 -0.000000 -0.000001 0.000000 -0.000000 -0.000001 0.000000 -0.000000 0.727748 3.026997 -7.324552 -54.688614 2.382182 -44.353438 0.000043 -113.998569 0.000030 -8.744116 -11.473578 -10.700553 -6.141219 -11.690804 -6.761699 9.914140 42.595515 3.409858 -0.000001 -0.000005 0.000000 0.255313 3.378233 -45.814331 5.654094 5.847772 -88.067435 -0.000002 -0.000001 -0.000002 -0.461476 3.841596 -39.722686 6.450750 5.820359 -95.892871 0.000000 -0.000001 -0.000002 0.469724 4.966828 -39.799447 8.181029 5.368627 -113.502998 -0.000000 -0.000000 -0.000002 -3.762428 9.063696 -45.253828 5.342537 5.829021 -85.005311 0.000000 0.000000 -0.000002 0.000000 0.000003 -0.000001 2.812983 13.874455 -5.932526 -45.155832 21.957426 84.432948 0.000064 114.502589 -0.000076 1.729113 20.759636 7.523806 -7.341096 13.749658 7.412336 9.855800 -44.489083 -3.903242 -0.000002 -0.000005 0.000004 -0.124376 -2.384801 45.108861 4.500593 -4.654552 88.071178 -0.000001 0.000001 0.000002 -0.761621 -2.932912 39.031048 5.133887 -4.632757 95.881642 -0.000001 -0.000000 -0.000002 0.154761 -4.068817 39.122678 6.509721 -4.273614 113.462877 -0.000000 -0.000000 0.000002 -4.198880 -8.025520 44.637776 4.252936 -4.639647 85.014846 0.000001 0.000002 -0.000003 -0.000000 0.000001 -0.000000 0.000001 0.000001 0.000000 0.000001 0.000001 0.000000 0.000001 0.000001 0.000000 0.000001 0.000001 0.000000 0.000001 0.000001 0.000001 -0.000000 0.000001 0.000000 0.000001 0.000001 0.000000 0.000001 0.000001 0.000001 -0.000000 0.000001 0.000000 -0.000000 -0.000001 0.000000 -0.000000 -0.000001 0.000000 -0.000000 -0.000001 -0.000000 
6.625797 63.723137 39.929943 -13.782399 -41.841250 -7.606128 -0.000000 -0.000001 -0.000000 -44.784943 0.986887 28.683352 54.668940 -6.806066 6.863812 -2.474306 -10.211091 -24.397921 0.000000 0.000005 0.000000 0.000000 0.000005 0.000000 -0.000000 -0.000000 0.000000 -28.457732 -3.866543 -37.189069 79.620792 8.809303 -10.062596 -14.813350 -11.592808 17.873811 0.000002 0.000002 0.000001 0.000002 0.000002 0.000001 -0.000001 0.000002 -0.000003 21.199027 6.369048 -8.693743 1.010368 1.004087 -0.234457 1.004582 1.022899 -0.248461 4.766929 13.065345 0.442461 1.896276 20.295892 -6.198564 0.000001 -0.000000 -0.000000 0.000001 -0.000000 -0.000000 0.000001 -0.000000 -0.000000 0.722453 3.377171 -7.482013 -53.816078 2.392655 -44.340615 0.000039 -114.488539 0.000040 -8.831650 -10.561575 -10.712651 -6.141219 -11.690805 -6.761699 9.914142 42.595515 3.409868 0.000000 -0.000001 -0.000001 0.255311 3.378233 -45.814337 5.654093 5.847773 -88.067435 -0.000001 -0.000000 -0.000002 -0.461476 3.841595 -39.722686 6.450750 5.820360 -95.892878 -0.000002 -0.000003 0.000001 0.469725 4.966829 -39.799451 8.181030 5.368626 -113.503004 0.000001 -0.000001 -0.000001 -3.762428 9.063691 -45.253828 5.342539 5.829023 -85.005311 0.000002 -0.000002 -0.000002 0.000000 0.000002 -0.000002 2.844844 14.234617 -6.010196 -45.524017 21.500539 84.730197 0.000073 114.409739 -0.000072 1.034124 19.977803 8.075883 -7.341097 13.749661 7.412337 9.855796 -44.489089 -3.903247 0.000001 0.000002 -0.000001 -0.124375 -2.384799 45.108857 4.500593 -4.654550 88.071171 0.000003 0.000000 0.000002 -0.761620 -2.932908 39.031055 5.133882 -4.632755 95.881629 0.000001 0.000002 -0.000005 0.154762 -4.068818 39.122682 6.509721 -4.273611 113.462877 0.000002 -0.000003 0.000004 -4.198881 -8.025514 44.637776 4.252933 -4.639650 85.014846 -0.000000 0.000002 -0.000003 0.000002 -0.000000 -0.000002 0.000000 0.000001 0.000000 0.000000 0.000001 0.000000 0.000000 0.000001 0.000000 0.000000 0.000001 0.000000 0.000000 0.000001 -0.000000 0.000000 0.000002 -0.000000 0.000000 0.000001 0.000000 0.000000 0.000001 -0.000000 0.000000 0.000002 -0.000000 -0.000000 0.000001 -0.000000 -0.000000 0.000001 -0.000000 -0.000000 -0.000001 -0.000000 
5.980707 64.101540 38.561348 -12.717026 -41.503112 -6.493311 -0.000000 0.000000 -0.000000 -44.068001 1.430815 28.725655 50.447012 -7.205872 6.777960 -0.112565 -10.705557 -25.306971 0.000000 0.000002 0.000000 0.000000 0.000002 0.000000 -0.000000 -0.000000 0.000001 -26.969106 -5.259418 -36.641212 77.715757 8.409351 -8.971133 -20.578699 -13.498360 18.398996 0.000001 -0.000000 0.000000 0.000001 -0.000000 0.000000 -0.000000 0.000002 -0.000001 19.353532 6.923130 -7.538870 1.352513 1.057875 -0.608381 1.352139 1.065433 -0.615882 5.139179 13.011483 -0.052975 2.198365 19.765676 -6.130644 -0.000002 0.000000 0.000000 -0.000002 0.000000 0.000000 -0.000002 0.000000 0.000000 0.720596 3.654629 -7.622851 -53.440807 2.217204 -44.400290 0.000100 -114.716852 0.000101 -8.688887 -9.634164 -11.046165 -6.141218 -11.690805 -6.761702 9.914140 42.595519 3.409862 -0.000001 0.000000 0.000001 0.255313 3.378231 -45.814334 5.654092 5.847770 -88.067435 -0.000002 -0.000001 -0.000006 -0.461476 3.841594 -39.722679 6.450750 5.820359 -95.892878 -0.000000 -0.000002 -0.000002 0.469725 4.966827 -39.799454 8.181030 5.368627 -113.503004 -0.000002 0.000001 -0.000002 -3.762428 9.063693 -45.253828 5.342538 5.829022 -85.005311 -0.000001 -0.000000 -0.000000 -0.000000 0.000002 -0.000002 2.810633 14.537264 -6.138982 -46.080185 20.947454 84.878788 -0.000006 114.352270 -0.000015 0.145113 19.111346 8.651096 -7.341095 13.749660 7.412335 9.855797 -44.489083 -3.903255 0.000002 -0.000001 -0.000002 -0.124373 -2.384802 45.108861 4.500593 -4.654552 88.071178 -0.000002 -0.000000 0.000003 -0.761619 -2.932908 39.031048 5.133886 -4.632756 95.881635 0.000002 0.000000 -0.000002 0.154764 -4.068818 39.122685 6.509718 -4.273611 113.462877 -0.000001 0.000002 0.000001 -4.198878 -8.025517 44.637783 4.252935 -4.639650 85.014839 -0.000001 0.000001 -0.000001 0.000001 -0.000001 0.000002 0.000000 0.000003 -0.000000 0.000000 0.000003 -0.000000 0.000000 0.000003 -0.000000 0.000000 0.000003 -0.000000 0.000000 0.000003 -0.000000 0.000001 0.000001 -0.000000 0.000000 0.000003 -0.000000 0.000000 0.000003 -0.000000 0.000001 0.000001 -0.000000 0.000000 -0.000000 -0.000000 0.000000 -0.000000 -0.000000 -0.000000 0.000000 -0.000000 
5.396712 64.509842 37.129776 -11.478427 -40.974814 -5.290307 -0.000000 0.000003 -0.000000 -43.618155 1.680948 28.548893 46.882337 -7.319822 6.503199 1.081192 -11.097257 -26.027194 0.000000 -0.000000 0.000000 0.000000 -0.000000 0.000000 -0.000002 0.000003 -0.000001 -26.010438 -6.578503 -36.095128 75.780177 7.653142 -7.561121 -25.487124 -14.407574 18.040778 -0.000000 0.000001 0.000000 -0.000000 0.000001 0.000000 -0.000001 -0.000000 -0.000002 17.618403 7.294561 -6.462694 1.638937 1.089193 -0.969847 1.644419 1.086878 -0.970828 5.394268 12.949646 -0.475062 2.388284 19.167888 -5.962652 0.000002 0.000000 -0.000000 0.000002 0.000000 -0.000000 0.000002 0.000000 -0.000000 0.718282 3.843460 -7.721461 -53.487375 1.962356 -44.508764 0.000036 -114.724502 0.000038 -8.343826 -8.919362 -11.544586 -6.141217 -11.690804 -6.761702 9.914136 42.595519 3.409864 0.000002 0.000001 -0.000002 0.255313 3.378232 -45.814331 5.654092 5.847771 -88.067441 -0.000000 0.000000 -0.000002 -0.461476 3.841596 -39.722679 6.450751 5.820359 -95.892878 -0.000002 -0.000000 0.000004 0.469725 4.966828 -39.799454 8.181033 5.368627 -113.503004 -0.000001 -0.000000 0.000001 -3.762427 9.063692 -45.253835 5.342538 5.829023 -85.005311 0.000002 -0.000002 0.000001 0.000001 0.000001 -0.000000 2.691448 14.753629 -6.327798 -46.723050 20.456837 84.821578 0.000034 114.332251 -0.000039 -0.808690 18.412571 9.158086 -7.341098 13.749656 7.412338 9.855802 -44.489089 -3.903252 0.000002 0.000002 -0.000002 -0.124374 -2.384799 45.108857 4.500593 -4.654552 88.071178 -0.000000 -0.000001 0.000005 -0.761621 -2.932907 39.031044 5.133884 -4.632755 95.881635 -0.000001 -0.000002 0.000001 0.154763 -4.068817 39.122682 6.509718 -4.273611 113.462877 -0.000001 -0.000001 0.000000 -4.198883 -8.025514 44.637776 4.252938 -4.639650 85.014839 0.000003 0.000001 0.000002 0.000000 -0.000003 0.000002 -0.000000 -0.000001 0.000000 -0.000000 -0.000001 0.000000 -0.000000 -0.000001 0.000000 -0.000000 -0.000001 0.000000 -0.000000 -0.000001 0.000001 0.000001 0.000001 0.000000 -0.000000 -0.000001 0.000000 -0.000000 -0.000001 0.000001 0.000001 0.000001 0.000000 0.000001 0.000006 -0.000000 0.000001 0.000006 -0.000000 -0.000000 0.000003 -0.000000 
